<svg xmlns="http://www.w3.org/2000/svg" xmlns:xlink="http://www.w3.org/1999/xlink" width="251.8" height="151.08" viewBox="0 0 251.8 151.08">
  <defs>
    <clipPath id="clip-path">
      <rect id="crop" width="251.8" height="151.08" fill="none"/>
    </clipPath>
    <clipPath id="clip-path-2">
      <path id="Path_157" data-name="Path 157" d="M28.464,58.329c3.964-8.4,39.043-45.192,97.322-45.192,59.707,0,96.022,36.83,97.547,45.139-1.018,7.666-36.725,45.4-97.547,45.4-57.2,0-93.083-36.9-97.322-45.35M125.787,0C59.989,0,15.42,43.852,15.42,58.415c0,11.686,42.751,58.408,110.367,58.408,66.361,0,110.347-41.56,110.347-58.408C236.134,43.392,192.781,0,125.787,0Z" fill="none"/>
    </clipPath>
    <linearGradient id="linear-gradient" x1="-0.011" y1="0.995" x2="0.015" y2="0.995" gradientUnits="objectBoundingBox">
      <stop offset="0" stop-color="#e30613"/>
      <stop offset="0.273" stop-color="#d40c19"/>
      <stop offset="0.685" stop-color="#c3131f"/>
      <stop offset="1" stop-color="#be1622"/>
    </linearGradient>
    <clipPath id="clip-path-3">
      <path id="Path_158" data-name="Path 158" d="M119.383,132.889v11.62a6.4,6.4,0,1,0,12.8,0v-11.62a6.4,6.4,0,1,0-12.8,0" fill="none"/>
    </clipPath>
    <linearGradient id="linear-gradient-2" x1="-5.701" y1="0.946" x2="-5.386" y2="0.946" gradientUnits="objectBoundingBox">
      <stop offset="0" stop-color="#3c00f2"/>
      <stop offset="0.247" stop-color="#580fec"/>
      <stop offset="0.541" stop-color="#731ee6"/>
      <stop offset="0.802" stop-color="#8427e3"/>
      <stop offset="1" stop-color="#8a2be2"/>
    </linearGradient>
    <linearGradient id="linear-gradient-3" x1="-5.701" y1="0.946" x2="-5.386" y2="0.946" xlink:href="#linear-gradient"/>
    <clipPath id="clip-path-5">
      <path id="Path_160" data-name="Path 160" d="M163.991,121.782a6.621,6.621,0,0,0-4.374,8.138l3.176,11.3a6.4,6.4,0,0,0,7.934,4.486,6.611,6.611,0,0,0,4.374-8.132l-3.176-11.291a6.444,6.444,0,0,0-6.167-4.749,6.344,6.344,0,0,0-1.767.25" fill="none"/>
    </clipPath>
    <linearGradient id="linear-gradient-4" x1="-6.252" y1="1.07" x2="-5.994" y2="1.07" xlink:href="#linear-gradient-2"/>
    <linearGradient id="linear-gradient-5" x1="-6.252" y1="1.071" x2="-5.994" y2="1.071" xlink:href="#linear-gradient"/>
    <clipPath id="clip-path-7">
      <path id="Path_162" data-name="Path 162" d="M201.49,106.273h-.006a6.7,6.7,0,0,0-1.255,9.2l7.2,9.8a6.306,6.306,0,0,0,8.959,1.287h.013a6.7,6.7,0,0,0,1.255-9.2l-7.2-9.794a6.354,6.354,0,0,0-5.123-2.6,6.252,6.252,0,0,0-3.842,1.314" fill="none"/>
    </clipPath>
    <linearGradient id="linear-gradient-6" x1="-6.886" y1="1.644" x2="-6.66" y2="1.644" xlink:href="#linear-gradient-2"/>
    <linearGradient id="linear-gradient-7" x1="-6.886" y1="1.645" x2="-6.66" y2="1.645" xlink:href="#linear-gradient"/>
    <clipPath id="clip-path-9">
      <path id="Path_164" data-name="Path 164" d="M229.487,84.544a6.709,6.709,0,0,0,1.883,9.1l10.54,7.035a6.328,6.328,0,0,0,8.863-1.925,6.6,6.6,0,0,0,1.025-3.4v-.322a6.63,6.63,0,0,0-2.907-5.367l-10.547-7.035a6.225,6.225,0,0,0-3.471-1.058,6.385,6.385,0,0,0-5.385,2.976" fill="none"/>
    </clipPath>
    <linearGradient id="linear-gradient-8" x1="-7.545" y1="2.584" x2="-7.33" y2="2.584" xlink:href="#linear-gradient-2"/>
    <linearGradient id="linear-gradient-9" x1="-7.545" y1="2.589" x2="-7.33" y2="2.589" xlink:href="#linear-gradient"/>
    <clipPath id="clip-path-11">
      <path id="Path_166" data-name="Path 166" d="M79.873,126.281,76.7,137.573A6.616,6.616,0,0,0,81.07,145.7,6.4,6.4,0,0,0,89,141.218l3.176-11.3a6.621,6.621,0,0,0-4.374-8.138,6.344,6.344,0,0,0-1.767-.25,6.45,6.45,0,0,0-6.167,4.749" fill="none"/>
    </clipPath>
    <linearGradient id="linear-gradient-10" x1="-2.908" y1="1.07" x2="-2.649" y2="1.07" xlink:href="#linear-gradient-2"/>
    <linearGradient id="linear-gradient-11" x1="-2.908" y1="1.071" x2="-2.649" y2="1.071" xlink:href="#linear-gradient"/>
    <clipPath id="clip-path-13">
      <path id="Path_168" data-name="Path 168" d="M41.348,107.561l-7.2,9.794a6.7,6.7,0,0,0,1.262,9.2,6.321,6.321,0,0,0,8.971-1.287l7.2-9.8a6.7,6.7,0,0,0-1.262-9.2,6.279,6.279,0,0,0-3.842-1.314,6.354,6.354,0,0,0-5.123,2.6" fill="none"/>
    </clipPath>
    <linearGradient id="linear-gradient-12" x1="-1.015" y1="1.644" x2="-0.789" y2="1.644" xlink:href="#linear-gradient-2"/>
    <linearGradient id="linear-gradient-13" x1="-1.015" y1="1.645" x2="-0.789" y2="1.645" xlink:href="#linear-gradient"/>
    <clipPath id="clip-path-15">
      <path id="Path_170" data-name="Path 170" d="M13.454,82.626,2.907,89.661A6.63,6.63,0,0,0,0,95.028v.322a6.6,6.6,0,0,0,1.025,3.4,6.329,6.329,0,0,0,8.863,1.925l10.547-7.035a6.7,6.7,0,0,0,1.876-9.1,6.377,6.377,0,0,0-5.385-2.976,6.225,6.225,0,0,0-3.471,1.058" fill="none"/>
    </clipPath>
    <linearGradient id="linear-gradient-14" x1="0.093" y1="2.583" x2="0.308" y2="2.583" xlink:href="#linear-gradient-2"/>
    <linearGradient id="linear-gradient-15" x1="0.093" y1="2.579" x2="0.308" y2="2.579" xlink:href="#linear-gradient"/>
  </defs>
  <g id="Vector_Smart_Object" data-name="Vector Smart Object" clip-path="url(#clip-path)">
    <g id="Group_24" data-name="Group 24">
      <g id="Group_23" data-name="Group 23" clip-path="url(#clip-path-2)">
        <rect id="Rectangle_20" data-name="Rectangle 20" width="246.356" height="187.211" transform="matrix(0.94, -0.342, 0.342, 0.94, -21.183, 13.668)" fill="url(#linear-gradient)"/>
      </g>
    </g>
    <g id="Group_26" data-name="Group 26">
      <g id="Group_25" data-name="Group 25" clip-path="url(#clip-path-3)">
        <rect id="Rectangle_21" data-name="Rectangle 21" width="20.284" height="27.755" transform="translate(111.626 129.219) rotate(-20)" fill="url(#linear-gradient-2)"/>
      </g>
    </g>
    <g id="Group_28" data-name="Group 28">
      <g id="Group_27" data-name="Group 27" clip-path="url(#clip-path-3)">
        <rect id="Rectangle_22" data-name="Rectangle 22" width="20.284" height="27.755" transform="matrix(0.94, -0.342, 0.342, 0.94, 111.626, 129.219)" fill="url(#linear-gradient-3)"/>
      </g>
    </g>
    <g id="Group_30" data-name="Group 30">
      <g id="Group_29" data-name="Group 29" clip-path="url(#clip-path-5)">
        <rect id="Rectangle_23" data-name="Rectangle 23" width="24.786" height="29.779" transform="matrix(0.94, -0.342, 0.342, 0.94, 150.749, 124.48)" fill="url(#linear-gradient-4)"/>
      </g>
    </g>
    <g id="Group_32" data-name="Group 32">
      <g id="Group_31" data-name="Group 31" clip-path="url(#clip-path-5)">
        <rect id="Rectangle_24" data-name="Rectangle 24" width="24.786" height="29.779" transform="matrix(0.94, -0.342, 0.342, 0.94, 150.749, 124.479)" fill="url(#linear-gradient-5)"/>
      </g>
    </g>
    <g id="Group_34" data-name="Group 34">
      <g id="Group_33" data-name="Group 33" clip-path="url(#clip-path-7)">
        <rect id="Rectangle_25" data-name="Rectangle 25" width="28.289" height="29.941" transform="matrix(0.94, -0.342, 0.342, 0.94, 190.661, 107.742)" fill="url(#linear-gradient-6)"/>
      </g>
    </g>
    <g id="Group_36" data-name="Group 36">
      <g id="Group_35" data-name="Group 35" clip-path="url(#clip-path-7)">
        <rect id="Rectangle_26" data-name="Rectangle 26" width="28.289" height="29.941" transform="matrix(0.94, -0.342, 0.342, 0.94, 190.661, 107.742)" fill="url(#linear-gradient-7)"/>
      </g>
    </g>
    <g id="Group_38" data-name="Group 38">
      <g id="Group_37" data-name="Group 37" clip-path="url(#clip-path-9)">
        <rect id="Rectangle_27" data-name="Rectangle 27" width="29.792" height="28.306" transform="translate(220.968 84.037) rotate(-20)" fill="url(#linear-gradient-8)"/>
      </g>
    </g>
    <g id="Group_40" data-name="Group 40">
      <g id="Group_39" data-name="Group 39" clip-path="url(#clip-path-9)">
        <rect id="Rectangle_28" data-name="Rectangle 28" width="29.792" height="28.306" transform="matrix(0.94, -0.342, 0.342, 0.94, 220.968, 84.037)" fill="url(#linear-gradient-9)"/>
      </g>
    </g>
    <g id="Group_42" data-name="Group 42">
      <g id="Group_41" data-name="Group 41" clip-path="url(#clip-path-11)">
        <rect id="Rectangle_29" data-name="Rectangle 29" width="24.78" height="29.777" transform="translate(67.834 124.479) rotate(-20)" fill="url(#linear-gradient-10)"/>
      </g>
    </g>
    <g id="Group_44" data-name="Group 44">
      <g id="Group_43" data-name="Group 43" clip-path="url(#clip-path-11)">
        <rect id="Rectangle_30" data-name="Rectangle 30" width="24.78" height="29.777" transform="matrix(0.94, -0.342, 0.342, 0.94, 67.834, 124.479)" fill="url(#linear-gradient-11)"/>
      </g>
    </g>
    <g id="Group_46" data-name="Group 46">
      <g id="Group_45" data-name="Group 45" clip-path="url(#clip-path-13)">
        <rect id="Rectangle_31" data-name="Rectangle 31" width="28.283" height="29.938" transform="matrix(0.94, -0.342, 0.342, 0.94, 24.576, 107.742)" fill="url(#linear-gradient-12)"/>
      </g>
    </g>
    <g id="Group_48" data-name="Group 48">
      <g id="Group_47" data-name="Group 47" clip-path="url(#clip-path-13)">
        <rect id="Rectangle_32" data-name="Rectangle 32" width="28.283" height="29.938" transform="translate(24.576 107.742) rotate(-20)" fill="url(#linear-gradient-13)"/>
      </g>
    </g>
    <g id="Group_50" data-name="Group 50">
      <g id="Group_49" data-name="Group 49" clip-path="url(#clip-path-15)">
        <rect id="Rectangle_33" data-name="Rectangle 33" width="29.798" height="28.309" transform="translate(-6.604 84.037) rotate(-20)" fill="url(#linear-gradient-14)"/>
      </g>
    </g>
    <g id="Group_52" data-name="Group 52">
      <g id="Group_51" data-name="Group 51" clip-path="url(#clip-path-15)">
        <rect id="Rectangle_34" data-name="Rectangle 34" width="29.798" height="28.309" transform="matrix(0.94, -0.342, 0.342, 0.94, -6.604, 84.037)" fill="url(#linear-gradient-15)"/>
      </g>
    </g>
  </g>
</svg>
