<svg xmlns="http://www.w3.org/2000/svg" xmlns:xlink="http://www.w3.org/1999/xlink" width="592.657" height="127.153" viewBox="0 0 592.657 127.153">
  <defs>
    <clipPath id="clip-path">
      <rect id="Rectangle_453" data-name="Rectangle 453" width="592.657" height="127.153" transform="translate(0 -0.001)" fill="none"/>
    </clipPath>
  </defs>
  <g id="Logo_header" data-name="Logo header" transform="translate(0 0.001)">
    <g id="Group_1206" data-name="Group 1206">
      <g id="Group_1205" data-name="Group 1205" clip-path="url(#clip-path)">
        <path id="Path_518" data-name="Path 518" d="M411.4,26.491c-.108.239-.238.391-.281.543-.324,1.629-.735,3.235-1.211,4.82-.346,1.129-.562,2.3-.887,3.431-.3,1.151-.67,2.28-.995,3.409-.281.977-.562,1.976-.843,2.953-.411,1.39-.843,2.8-1.232,4.191-.3,1.064-.584,2.128-.887,3.192-.216.76-.454,1.52-.692,2.258-.3.977-.649,1.954-.951,2.931-.324,1.042-.649,2.106-.973,3.17-.3.977-.584,1.954-.887,2.953-.389,1.238-.778,2.475-1.146,3.735-.281.912-.562,1.8-.822,2.714-.389,1.281-.778,2.562-1.189,3.843-.324,1.042-.67,2.106-1.016,3.148-.238.76-.476,1.5-.714,2.258-.3,1.021-.584,2.041-.887,3.062-.238.8-.476,1.585-.714,2.367-.324,1.042-.692,2.106-1.016,3.148-.3.934-.584,1.889-.865,2.823-.216.717-.324.8-1.081.847H380.066a6.977,6.977,0,0,1-.951-.043.737.737,0,0,1-.649-.586c-.259-1.021-.519-2.063-.8-3.083-.259-.955-.519-1.911-.778-2.844l-1.232-4.56c-.324-1.129-.67-2.258-.995-3.409-.324-1.173-.627-2.367-.93-3.539-.281-1.021-.541-2.063-.822-3.083-.411-1.52-.822-3.04-1.254-4.56-.324-1.129-.67-2.28-.973-3.409-.324-1.216-.627-2.432-.951-3.67-.065-.239-.108-.456-.151-.695-.411-1.607-.843-3.214-1.254-4.8-.346-1.346-.714-2.671-1.038-4.017s-.584-2.692-.908-4.039c-.324-1.455-.692-2.91-1.016-4.386-.087-.391-.173-.782-.238-1.151a6.67,6.67,0,0,0-.108-.695c-.324-1.455-.649-2.931-.973-4.386a5.89,5.89,0,0,1-.195-1.042,12.383,12.383,0,0,0-.865-3.3c-.324.065-.238.3-.238.456-.065,2.258-.151,4.495-.173,6.753-.065,4.582-.346,9.163-.562,13.745-.151,3.235-.195,6.471-.346,9.728-.195,4.343-.432,8.685-.649,13.028-.216,4.43-.432,8.837-.67,13.267-.086,1.585-.195,3.148-.3,4.734a1.217,1.217,0,0,1-.065.478.6.6,0,0,1-.5.456,6.821,6.821,0,0,1-.951.043H344.476c-1.362,0-1.384-.022-1.319-1.411.086-1.542.216-3.083.3-4.625.173-2.844.324-5.689.5-8.533.216-3.67.454-7.339.692-11.009.238-3.778.476-7.578.735-11.356.151-2.519.324-5.059.476-7.578.065-1.151.151-2.28.238-3.431.13-2.019.259-4.017.389-6.036.108-1.542.195-3.083.3-4.625.13-2.085.259-4.191.389-6.275.108-1.542.216-3.083.3-4.625.173-2.953.346-5.928.519-8.881.043-.586.065-1.194.13-1.781.065-.695.281-.869.995-.912h22.552a.829.829,0,0,1,.951.695c.195.76.432,1.52.649,2.28.216.717.411,1.433.627,2.15.324,1.086.649,2.193.995,3.279.3.977.584,1.954.887,2.953.411,1.39.822,2.8,1.211,4.212.3,1.107.605,2.215.908,3.3.238.869.476,1.759.735,2.606.324,1.086.692,2.171,1.016,3.279.281.955.541,1.889.8,2.844.173.608.324,1.216.5,1.824.3,1.173.605,2.367.908,3.561.108.391.216.76.3,1.151.108.456.238.912.346,1.368.108.413.195.847.3,1.259.13.5.238,1,.368,1.5.043.2.065.391.108.586.324,1.3.692,2.584.995,3.908.324,1.411.605,2.866.908,4.278.086.434.195.847.281,1.259.108.543.238,1.086.346,1.629.087.434.151.847.216,1.281.173.847.324,1.715.5,2.562a9.1,9.1,0,0,0,.346,1.259.49.49,0,0,0,.346.239c.108,0,.238-.152.346-.261a.166.166,0,0,0,.043-.109c.281-1.281.541-2.54.822-3.822.259-1.151.541-2.3.822-3.452.389-1.607.8-3.214,1.211-4.82.324-1.216.67-2.432,1.016-3.648.281-1,.541-1.976.822-2.975.216-.847.432-1.672.67-2.519.389-1.411.8-2.8,1.211-4.212.281-.955.541-1.889.822-2.844.368-1.216.757-2.41,1.124-3.6.238-.782.519-1.585.757-2.367.3-1.021.584-2.041.887-3.062.324-1.021.67-2.019.995-3.04.281-.89.584-1.8.865-2.692.411-1.281.8-2.562,1.189-3.843l.908-3.062c.281-.934.584-1.889.887-2.823.151-.456.3-.89.432-1.346.173-.543.324-.695.908-.738.281-.022.541,0,.822,0H425.69c1.405,0,1.449.087,1.535,1.433.238,3.67.5,7.339.584,11.009.043,1.585.195,3.148.281,4.734.108,1.889.195,3.8.3,5.689.151,2.692.3,5.363.454,8.056.043.825.108,1.65.151,2.475.173,3.279.346,6.558.5,9.836.13,2.844.238,5.689.389,8.533q.357,6.872.735,13.745c.238,4.451.476,8.924.714,13.376.022.434.086.869.108,1.3.022.565-.151.782-.735.847-.281.022-.541,0-.822.022H415.116c-.281,0-.562,0-.822-.022a.588.588,0,0,1-.584-.608v-.239c-.216-5.1-.432-10.184-.649-15.286l-.389-9.12c-.108-2.5-.195-4.972-.281-7.469-.151-4.234-.281-8.447-.411-12.681-.087-3.17-.151-6.319-.195-9.489-.022-2.215,0-4.43,0-6.644a2.067,2.067,0,0,0-.346-1.542Z" fill="#231f20" fill-rule="evenodd"/>
        <path id="Path_519" data-name="Path 519" d="M114.933,89.069a1.474,1.474,0,0,1-.151-.434q0-39.117-.022-78.256c0-.2.065-.391.086-.608a4.676,4.676,0,0,1,1.946-.478c1.211-.174,2.422-.326,3.633-.478.692-.087,1.405-.174,2.119-.217a27.486,27.486,0,0,0,4.216-.434,6.412,6.412,0,0,1,1.3-.087q9.211-.228,18.422-.043a8.495,8.495,0,0,1,2.335.282.976.976,0,0,0,.346.065,42.084,42.084,0,0,1,5.708.847c.541.109,1.081.217,1.622.347.454.109.93.217,1.384.347,1.016.282,2.054.543,3.049.869.887.3,1.751.695,2.638,1.042a32.089,32.089,0,0,1,5.773,2.931,33.035,33.035,0,0,1,7.611,6.492,31.182,31.182,0,0,1,4.584,6.992q.941,1.987,1.687,4.039a33.764,33.764,0,0,1,.908,3.3.163.163,0,0,0,.022.109,33.219,33.219,0,0,1,.951,5.233,22.71,22.71,0,0,1,.281,3.431c.043,1.889.022,3.8,0,5.689a22.755,22.755,0,0,1-.368,4.017c-.13.695-.173,1.411-.281,2.106s-.259,1.39-.389,2.084c-.043.2-.108.391-.151.565a28.831,28.831,0,0,1-1.578,5.689,36.053,36.053,0,0,1-11.265,16.046,27.413,27.413,0,0,1-4.735,3.105c-1.124.586-2.205,1.194-3.373,1.694-1.405.608-2.854,1.107-4.3,1.607-.973.326-1.946.608-2.941.89-.605.174-1.211.3-1.816.456-.346.087-.692.152-1.038.239-.238.065-.454.152-.692.2-1.773.282-3.568.586-5.362.847-.822.13-1.643.2-2.465.261-1.449.13-2.9.326-4.346.369-5.189.13-10.379.13-15.59-.152-.865-.043-1.73-.152-2.595-.217-1.168-.087-2.357-.2-3.524-.261a26.829,26.829,0,0,1-3.654-.5Zm17.882-40.018h0V73.718c0,1.781-.238,1.715,1.687,1.889a44.888,44.888,0,0,0,8.368-.043,16.666,16.666,0,0,0,2.573-.261c1.449-.369,2.919-.565,4.346-1.064A25.673,25.673,0,0,0,153.7,72.61a21.165,21.165,0,0,0,7.611-6.775,24.228,24.228,0,0,0,2.53-4.8c.541-1.39.908-2.844,1.341-4.278a6.6,6.6,0,0,0,.13-.695c.108-.63.216-1.238.3-1.867.13-.89.281-1.8.346-2.692.086-1.151.086-2.3.108-3.431,0-1.151-.043-2.3-.065-3.431a37.434,37.434,0,0,0-.562-4.1,23.233,23.233,0,0,0-.973-3.648,20.371,20.371,0,0,0-1.924-4.191,19.787,19.787,0,0,0-6.314-6.6,24.063,24.063,0,0,0-7.935-3.214,35.7,35.7,0,0,0-4.779-.695,38.518,38.518,0,0,0-9.99.521c-.584.109-.692.217-.714.869v25.47Z" fill="#231f20" fill-rule="evenodd"/>
        <path id="Path_520" data-name="Path 520" d="M567.056,51.049c.13.478.541.521.843.673a15.08,15.08,0,0,1,3.005,2.063,17.1,17.1,0,0,1,3.957,5.407,47.485,47.485,0,0,1,1.86,4.473c.368,1.042.605,2.128.887,3.192.346,1.259.67,2.519,1.016,3.778.281,1.064.562,2.128.843,3.214.411,1.65.843,3.279,1.254,4.929.3,1.216.584,2.454.908,3.67.324,1.173.714,2.345,1.016,3.518a26.686,26.686,0,0,0,.951,2.8c.195.5,0,.782-.5.825-.3.022-.627.022-.951.022h-15.59c-1.341,0-1.319-.065-1.859-1.325-.714-1.672-1.124-3.452-1.73-5.146a34.037,34.037,0,0,1-.865-3.322c-.259-1-.5-1.976-.757-2.975-.346-1.346-.692-2.671-1.038-4.017-.238-.955-.519-1.911-.67-2.888a20.546,20.546,0,0,0-.908-3.431,13.7,13.7,0,0,0-3.741-6.471,9.5,9.5,0,0,0-3.827-1.976,21.372,21.372,0,0,0-5.492-.565h-3.308c-.605,0-.735.174-.757.8V88.2c0,1.368,0,1.39-1.384,1.39H524.871c-1.362,0-1.362-.022-1.362-1.39V10.4a.877.877,0,0,1,.8-.89c.389-.065.778-.152,1.168-.2.238-.043.476,0,.714-.065,2.984-.565,6.033-.565,9.016-1.042a11.961,11.961,0,0,1,1.773-.13h17.6a8.476,8.476,0,0,1,2.443.3,10,10,0,0,0,1.643.217q1.168.163,2.335.391c.5.087.995.2,1.492.3.26.065.541.087.8.174,1.276.413,2.573.738,3.805,1.238a21.83,21.83,0,0,1,10.963,8.946,21.157,21.157,0,0,1,2.27,5.928,27.683,27.683,0,0,1,.519,7.3,12.879,12.879,0,0,1-.389,2.562,24.309,24.309,0,0,1-.735,2.736,21.738,21.738,0,0,1-2.378,4.625,22.317,22.317,0,0,1-6.919,6.514,15.483,15.483,0,0,1-3.07,1.5c-.13.043-.216.174-.324.261ZM541.628,33.157v9.6c0,.282,0,.543.022.825a.51.51,0,0,0,.454.478,3.938,3.938,0,0,0,.714.043h5.773a19.7,19.7,0,0,0,5.492-.651,13.5,13.5,0,0,0,4.735-2.28,9.6,9.6,0,0,0,3.222-4.3,12.093,12.093,0,0,0,.67-5.819c-.086-.695-.324-1.368-.476-2.063a6.893,6.893,0,0,0-1.146-2.454c-1.816-2.714-4.541-3.908-7.589-4.473a18.662,18.662,0,0,0-2.7-.239,62.576,62.576,0,0,0-7.546.217c-1.557.087-1.622.174-1.622,1.781v9.337Z" fill="#231f20" fill-rule="evenodd"/>
        <path id="Path_521" data-name="Path 521" d="M512.525,89.308a1.939,1.939,0,0,1-.519.261,8.646,8.646,0,0,1-1.059.043H493.584a.657.657,0,0,1-.67-.565c-.238-.825-.476-1.672-.735-2.5-.324-1.086-.692-2.171-1.016-3.279-.281-.912-.541-1.8-.822-2.714-.411-1.39-.843-2.8-1.254-4.191-.3-1.064-.584-2.128-.887-3.192-.368-1.216-.757-2.41-1.124-3.6a.825.825,0,0,0-.951-.673H465.691c-1.622,0-1.773.022-2.054,1.715-.173,1-.5,1.976-.757,2.975-.411,1.563-.843,3.127-1.254,4.69-.324,1.173-.67,2.345-.995,3.518s-.605,2.367-.93,3.539c-.281,1.064-.541,2.15-.843,3.192-.281.955-.476,1.086-1.535,1.086H440.436c-.649-.043-.822-.326-.627-.934.432-1.346.843-2.714,1.254-4.06.324-1.042.67-2.106.995-3.148.324-1.086.649-2.193.951-3.3.281-.955.562-1.889.843-2.844.389-1.325.8-2.649,1.211-3.952.324-1.064.67-2.106.995-3.148.3-.977.584-1.954.887-2.953.368-1.238.757-2.475,1.124-3.735.3-1.021.584-2.041.887-3.062l1.038-3.387.908-2.931c.411-1.325.8-2.627,1.211-3.952.3-1.064.584-2.128.908-3.192.259-.912.541-1.824.822-2.714.411-1.368.8-2.714,1.232-4.082.324-1.064.692-2.106.995-3.148.324-1.064.605-2.128.93-3.17.281-.955.562-1.889.843-2.844.411-1.368.822-2.714,1.232-4.082.3-1.021.649-2.019.951-3.04.324-1.086.649-2.193.973-3.279.281-.955.541-1.889.822-2.844.411-1.368.822-2.714,1.232-4.082.238-.782.476-1.585.714-2.388a.976.976,0,0,1,.951-.76h21.73c1.276,0,1.47.174,1.838,1.368.411,1.368.843,2.714,1.232,4.06.324,1.064.605,2.128.908,3.17.216.717.432,1.433.67,2.15.346,1.042.692,2.106,1.016,3.148.238.76.476,1.5.692,2.258l.908,3.062c.281.934.562,1.889.843,2.823.389,1.281.778,2.562,1.189,3.843.324,1.042.67,2.106,1.016,3.148.238.76.476,1.5.714,2.258l.908,3.062c.3,1.021.627,2.041.93,3.04.324,1.021.67,2.019.973,3.04s.584,2.041.887,3.062c.195.673.411,1.368.627,2.041.324,1.021.67,2.019.995,3.04.281.89.562,1.8.843,2.714.389,1.238.757,2.5,1.146,3.735.3.977.584,1.954.887,2.931.368,1.173.714,2.323,1.081,3.5.281.912.562,1.8.843,2.714.411,1.346.843,2.714,1.254,4.06.324,1.064.605,2.128.908,3.192.238.825.5,1.65.757,2.5.324,1.021.692,2.019.995,3.04.346,1.086.649,2.193.951,3.3a3.129,3.129,0,0,1,.065.5ZM475.291,22.626c-.216.5-.368.738-.432.977-.238,1.042-.432,2.085-.67,3.127-.411,1.889-.822,3.778-1.276,5.667-.324,1.346-.67,2.671-1.016,4.017-.086.347-.151.695-.216,1.042-.086.347-.151.695-.259,1.042-.324,1.086-.67,2.193-.973,3.279-.411,1.433-.822,2.888-1.232,4.321-.259.955-.541,1.889-.8,2.844-.389,1.411-.8,2.8-1.189,4.212a6.789,6.789,0,0,0-.238,1.151.594.594,0,0,0,.519.673,5.2,5.2,0,0,0,.822.022h14.163c.281,0,.562,0,.822-.022.454-.043.649-.3.541-.717-.216-.8-.454-1.585-.692-2.388-.3-1.064-.627-2.128-.93-3.17-.3-1.107-.605-2.215-.93-3.3s-.692-2.171-1.016-3.279c-.411-1.39-.8-2.8-1.211-4.212-.086-.3-.151-.608-.216-.912-.086-.391-.173-.76-.281-1.151-.324-1.259-.67-2.519-.995-3.778-.324-1.3-.627-2.606-.93-3.908-.389-1.607-.757-3.214-1.146-4.842a7.292,7.292,0,0,0-.3-.673Z" fill="#231f20" fill-rule="evenodd"/>
        <path id="Path_522" data-name="Path 522" d="M215.456,55.652c-.022.3-.086.565-.086.825V73.435c0,.76.281,1,1.016.955h30.942a.888.888,0,0,1,.908.912c.022.282.022.543.022.825V88.222c0,1.259-.086,1.346-1.341,1.368H198.028c-.541-.022-.714-.2-.757-.717V10.01c0-1.455,0-1.477,1.427-1.477h46.423c1.492,0,1.514,0,1.514,1.52V22.039c0,.326,0,.63-.022.955a.754.754,0,0,1-.757.76c-.346.022-.714.022-1.059.022H216.926c-1.514,0-1.535,0-1.535,1.5V38.911a7.11,7.11,0,0,0,.065,1.173.48.48,0,0,0,.5.434h28c.562.043.778.261.843.782.022.282,0,.543,0,.825V53.98c0,1.433-.022,1.477-1.427,1.477H216.083a2.113,2.113,0,0,0-.584.152Z" fill="#231f20" fill-rule="evenodd"/>
        <path id="Path_523" data-name="Path 523" d="M278.744,74.087c.627,0,1.124.022,1.643.022H308.5a10,10,0,0,1,1.405.065.621.621,0,0,1,.584.63c.022.282,0,.543,0,.825V88.2c0,1.325-.065,1.39-1.405,1.39H262.441c-.432,0-.865,0-1.3-.022a.552.552,0,0,1-.584-.608V9.619c0-.955.108-1.064,1.1-1.064h16.173c.649.043.8.2.822.89V73.218c0,.217.065.456.108.825Z" fill="#231f20" fill-rule="evenodd"/>
        <path id="Path_524" data-name="Path 524" d="M249.6,126.525a38.338,38.338,0,0,1-3.849.043,5.839,5.839,0,0,1-.562-.717c-3.395-5.081-6.789-10.184-10.184-15.265a72.7,72.7,0,0,1-3.935-6.6c-.108-.2-.238-.369-.411-.651a1.165,1.165,0,0,0-.108.869c0,.282.043.543.065.825,0,.326.043.63.043.955,0,.282,0,.543.022.825v18.826a4.55,4.55,0,0,1-.086.782,9.744,9.744,0,0,1-3.481.043,5.927,5.927,0,0,1-.086-.651V99.948a4.306,4.306,0,0,1,.086-1.39,1.653,1.653,0,0,1,.368-.109h3.7c.195.239.389.478.562.738,3.178,4.712,6.379,9.424,9.535,14.136a76.192,76.192,0,0,1,4.238,7.122,7.493,7.493,0,0,0,.432.695.976.976,0,0,1,.173.022c.043-1.259-.195-2.5-.216-3.735,0-1.259-.086-2.519-.108-3.8-.022-1.259-.022-2.54-.043-3.8v-7.469a37.777,37.777,0,0,1,.065-3.822,6.144,6.144,0,0,1,1.773-.109h1.708a5.1,5.1,0,0,1,.151.695c.022.3,0,.63,0,.955v26.447Z" fill="#231f20" fill-rule="evenodd"/>
        <path id="Path_525" data-name="Path 525" d="M114.609,126.416V98.949a1.963,1.963,0,0,1,.541-.239,56.124,56.124,0,0,1,8.952-.5,21.242,21.242,0,0,1,7.265,1.368,11.833,11.833,0,0,1,7.7,10.336,17.383,17.383,0,0,1-.432,6.34,12.632,12.632,0,0,1-8.3,9.163,24.729,24.729,0,0,1-5.86,1.238,59.9,59.9,0,0,1-8.606-.065,7.173,7.173,0,0,1-1.232-.2Zm4-24.884a1.336,1.336,0,0,0-.108.326v20.519c0,.326,0,.63.022.955,0,.043.022.065.043.109,0,.043.043.065.108.2a13.273,13.273,0,0,0,1.449.174c.908.043,1.816,0,2.724.022a16.162,16.162,0,0,0,4.887-.738,9.816,9.816,0,0,0,6.854-7.057,15.191,15.191,0,0,0,.411-5.993,9.246,9.246,0,0,0-7.179-8.295,15.154,15.154,0,0,0-4.195-.565,21.4,21.4,0,0,0-4.973.347Z" fill="#231f20" fill-rule="evenodd"/>
        <path id="Path_526" data-name="Path 526" d="M217.38,122.986v-8.121a5.563,5.563,0,0,0-.8-.13h-5.1a9.159,9.159,0,0,1-.13-2.866,2.482,2.482,0,0,1,.454-.13h8.973c.086,0,.151.043.3.065a1.885,1.885,0,0,1,.13.5v12.572a1.478,1.478,0,0,1-.087.369,4.652,4.652,0,0,1-1.427.5,27.657,27.657,0,0,1-8.735,1.086,18.351,18.351,0,0,1-5.319-.912,12.471,12.471,0,0,1-8.692-9.88,15.36,15.36,0,0,1,.281-7.73,13.421,13.421,0,0,1,8.476-8.924,19.082,19.082,0,0,1,6.335-1.216,22.968,22.968,0,0,1,6.66.717,4,4,0,0,1,1.557.63,16.487,16.487,0,0,1-.865,2.779,1.856,1.856,0,0,1-.368-.022,17.98,17.98,0,0,0-7.179-1.042,13.648,13.648,0,0,0-4.822,1.064,9.868,9.868,0,0,0-6.054,7.621,13.393,13.393,0,0,0,.389,6.666,9.652,9.652,0,0,0,6.725,6.579,15.845,15.845,0,0,0,6.768.456,6.65,6.65,0,0,0,2.53-.673Z" fill="#231f20" fill-rule="evenodd"/>
        <path id="Path_527" data-name="Path 527" d="M144.275,98.493c1.643-.13,14.963-.087,15.936.043A3.6,3.6,0,0,1,160.3,99.9v1.368c-.368.347-.735.239-1.081.239h-9.795c-.432,0-.843.022-1.341.043-.13,1.477-.043,2.888-.065,4.3v4.212c.389.369.822.239,1.189.239h9.1c.389,0,.778.022,1.189.043a3.3,3.3,0,0,1,.13,1.433v1.346a1.5,1.5,0,0,1-1.1.217h-9.211c-.389,0-.778.022-1.081.043l-.151.152a.944.944,0,0,0-.022.109c0,3-.022,6.015-.022,9.011a5.346,5.346,0,0,0,.043.586c.389.347.843.217,1.254.217h10.271a3.079,3.079,0,0,1,1.319.13c0,.282.065.543.065.8a16.252,16.252,0,0,1-.043,2.041,5.018,5.018,0,0,1-.735.109H144.859c-.195,0-.389-.043-.605-.065a2.509,2.509,0,0,1-.13-.456c-.022-.282,0-.543,0-.825V99.817a2.383,2.383,0,0,1,.173-1.325Z" fill="#231f20" fill-rule="evenodd"/>
        <path id="Path_528" data-name="Path 528" d="M181.314,99.4a25.412,25.412,0,0,1-1.038,2.866c-.368-.13-.692-.239-1.016-.347a13.141,13.141,0,0,0-5.081-.89,8.273,8.273,0,0,0-2.422.478,4.422,4.422,0,0,0-1.6,1,3.923,3.923,0,0,0-.151,5.45,6.538,6.538,0,0,0,1.9,1.368c.93.434,1.881.8,2.811,1.216,1.081.478,2.184.912,3.243,1.411a9.751,9.751,0,0,1,2.422,1.694,6.632,6.632,0,0,1,2.141,4.734,7.388,7.388,0,0,1-4.368,7.361,11.719,11.719,0,0,1-4.541,1.173,18.242,18.242,0,0,1-7.006-.76,7.152,7.152,0,0,1-2.162-.977,18.54,18.54,0,0,1,.951-3c.324.152.605.282.887.391a14.046,14.046,0,0,0,7.352,1.281,7.048,7.048,0,0,0,2.789-.912,4.5,4.5,0,0,0,.865-6.948,8.455,8.455,0,0,0-2.033-1.39c-.822-.391-1.665-.717-2.508-1.042a19.231,19.231,0,0,1-3.546-1.585,14.488,14.488,0,0,1-2.1-1.542,6.724,6.724,0,0,1-.346-9.4,8.93,8.93,0,0,1,4.411-2.606,14.413,14.413,0,0,1,5.622-.347,15.979,15.979,0,0,1,3.654.847,8.491,8.491,0,0,1,.865.456Z" fill="#231f20" fill-rule="evenodd"/>
        <path id="Path_529" data-name="Path 529" d="M191.693,126.547h-3.741a4.726,4.726,0,0,1-.151-.717c-.022-.282,0-.543,0-.825V99.991c0-.478.022-.934.043-1.455a30.8,30.8,0,0,1,3.741-.065c.043.282.108.5.13.717v25.839c0,.478,0,.934-.022,1.52" fill="#231f20" fill-rule="evenodd"/>
        <path id="Path_530" data-name="Path 530" d="M367.439,99.036a2.3,2.3,0,0,1,.411-.152,53.788,53.788,0,0,1,9.535-.478,22.044,22.044,0,0,1,5.9,1.042c4.779,1.65,7.676,4.929,8.433,9.988a16.653,16.653,0,0,1-.995,8.946,12.248,12.248,0,0,1-6.357,6.688,17.884,17.884,0,0,1-5.06,1.5,34.836,34.836,0,0,1-8.238.3c-.714-.043-1.405-.043-2.119-.109-.5-.043-1.016-.109-1.47-.174-.065-.109-.065-.152-.086-.174,0-.043-.043-.065-.043-.109q0-13.224-.022-26.425V99.3a.9.9,0,0,1,.087-.261Zm3.957,2.584a1.822,1.822,0,0,0-.13.391c0,6.84,0,13.658-.022,20.5a7.066,7.066,0,0,0,.043.955c0,.043.022.065.043.109,0,.043.043.065.108.2.324.043.692.152,1.081.174.951.043,1.881.022,2.833.043a15.545,15.545,0,0,0,4.995-.717,9.748,9.748,0,0,0,6.854-6.753,14.638,14.638,0,0,0,.411-7.035,9.021,9.021,0,0,0-5.622-7.079,11.982,11.982,0,0,0-4.346-1c-1.405-.043-2.833-.022-4.238,0-.67,0-1.319.152-1.989.217Z" fill="#231f20" fill-rule="evenodd"/>
        <path id="Path_531" data-name="Path 531" d="M283.025,126.46V99.079a2.162,2.162,0,0,1,.541-.217,40.965,40.965,0,0,1,7.287-.478,17.691,17.691,0,0,1,4.649.673,9.8,9.8,0,0,1,2.919,1.5,6.069,6.069,0,0,1,1.276,8.164,7.653,7.653,0,0,1-2.551,2.236c-.346.2-.692.347-1.146.586a3.749,3.749,0,0,0,.476.326,17.348,17.348,0,0,1,2.119,1.021,7.025,7.025,0,0,1,1.838,10.249,7.831,7.831,0,0,1-3.222,2.519,16.546,16.546,0,0,1-4.67,1.151,46.83,46.83,0,0,1-8.368,0,2.14,2.14,0,0,1-1.168-.3Zm3.978-2.54c.346.022.605.065.887.065h3.654a7.981,7.981,0,0,0,3.308-.8,4.638,4.638,0,0,0,2.7-2.953,5.576,5.576,0,0,0,.151-2.236,4.272,4.272,0,0,0-1.816-3.192,8.308,8.308,0,0,0-1.557-.847,9.344,9.344,0,0,0-3.438-.695c-1.06-.022-2.119,0-3.178,0a5.962,5.962,0,0,0-.649.065c-.151.955-.195,9.185-.043,10.575Zm.043-13.571a1.276,1.276,0,0,0,.324.087c1.3,0,2.595.065,3.892,0a7.224,7.224,0,0,0,3.568-1.086,4.131,4.131,0,0,0,1.946-4.147,3.862,3.862,0,0,0-2.724-3.387,4.26,4.26,0,0,0-.562-.174,13,13,0,0,0-5.254-.3,2.115,2.115,0,0,0-1.211.261,84.382,84.382,0,0,0,.043,8.794Z" fill="#231f20" fill-rule="evenodd"/>
        <path id="Path_532" data-name="Path 532" d="M325.275,98.6h3.2c.195,0,.368.043.627.065.022.347.086.651.086.955v15.525a17.21,17.21,0,0,1-.562,4.451c-.93,3.452-3.373,6.775-8.779,7.426a14.96,14.96,0,0,1-5.384-.261,8.811,8.811,0,0,1-6.422-5.58,13.773,13.773,0,0,1-.93-4.256c-.043-.717-.043-1.433-.043-2.128V99.969a4.149,4.149,0,0,1,.108-1.346c1.232-.13,2.422-.043,3.611-.065A2.262,2.262,0,0,1,311,99.991v14.353c0,.912.043,1.824.108,2.714a9.717,9.717,0,0,0,.735,3.105,6.2,6.2,0,0,0,5.535,3.974,7.8,7.8,0,0,0,2.919-.3,5.967,5.967,0,0,0,3.762-3.018,8.606,8.606,0,0,0,.973-3.148,29.1,29.1,0,0,0,.195-3.062V100.013c0-.434,0-.869.022-1.455Z" fill="#231f20" fill-rule="evenodd"/>
        <path id="Path_533" data-name="Path 533" d="M346.444,98.623h3.7c.043.239.13.456.151.673.022.347,0,.717,0,1.064V123.4a2.027,2.027,0,0,0,1.341.217h10.033a3.3,3.3,0,0,1,1.3.109,3.893,3.893,0,0,1,.086,1.411v1.455a6.714,6.714,0,0,1-.865.109H347.309c-.259,0-.541-.043-.865-.065a4.348,4.348,0,0,1-.086-.695V100.121a5.261,5.261,0,0,1,.108-1.5Z" fill="#231f20" fill-rule="evenodd"/>
        <path id="Path_534" data-name="Path 534" d="M335.827,98.645h3.719c.043.239.108.456.13.673.022.239,0,.478,0,.717V126.59a4.913,4.913,0,0,1-1.924.174c-.584.022-1.168,0-1.795,0a5.938,5.938,0,0,1-.173-.738c-.022-.282,0-.543,0-.825V100.186c0-.478.022-.934.043-1.542" fill="#231f20" fill-rule="evenodd"/>
        <path id="Path_535" data-name="Path 535" d="M413.278,112.389a5.3,5.3,0,1,1-5.3-5.32,5.3,5.3,0,0,1,5.3,5.32" fill="#231f20" fill-rule="evenodd"/>
        <path id="Path_536" data-name="Path 536" d="M539.12,112.3a18.119,18.119,0,0,1-1.038,6.123,12.577,12.577,0,0,1-9.449,8.229,14.79,14.79,0,0,1-7.352-.13,12.075,12.075,0,0,1-8.476-7.73,16.483,16.483,0,0,1,.238-12.7,12.732,12.732,0,0,1,10.379-7.925,14,14,0,0,1,6.292.391,12.361,12.361,0,0,1,8.779,8.946,17.839,17.839,0,0,1,.627,4.842Zm-4.065.13c-.108-.912-.151-1.8-.3-2.692a11.977,11.977,0,0,0-2.162-5.19,8.546,8.546,0,0,0-4.454-3.17,9.67,9.67,0,0,0-3.157-.347,8.392,8.392,0,0,0-5.816,2.5,10.4,10.4,0,0,0-2.141,3.235,14.692,14.692,0,0,0-1.1,4.712,13.752,13.752,0,0,0,1.557,7.8,8.959,8.959,0,0,0,14.855,1.52,10.368,10.368,0,0,0,1.687-2.975,16.573,16.573,0,0,0,.995-5.342Z" fill="#231f20" fill-rule="evenodd"/>
        <path id="Path_537" data-name="Path 537" d="M544.007,98.927a6.071,6.071,0,0,1,2.249-.434,46.236,46.236,0,0,1,6.011-.261,18.689,18.689,0,0,1,4.779.695,10.792,10.792,0,0,1,1.643.651,6.672,6.672,0,0,1,3.784,6.688,7,7,0,0,1-4.108,6.188c-.411.217-.822.391-1.362.651.281.152.432.261.584.347a5.933,5.933,0,0,1,2.746,2.844,17.615,17.615,0,0,1,.865,2.323c.432,1.477.757,2.975,1.189,4.473.259.955.605,1.867.886,2.823a5.09,5.09,0,0,1,.151.543,13.32,13.32,0,0,1-3.806.087,3.04,3.04,0,0,1-.714-1.585c-.432-1.477-.8-2.975-1.211-4.451-.173-.608-.281-1.238-.5-1.824a10.824,10.824,0,0,0-.692-1.629,4.557,4.557,0,0,0-3.438-2.454,22.4,22.4,0,0,0-4.822-.13c-.065,0-.13.087-.281.174-.022,3.887,0,7.839,0,11.769a3.849,3.849,0,0,1-1.9.2,11.561,11.561,0,0,1-1.924-.065,4.43,4.43,0,0,1-.108-.717v-26.9ZM548.05,111.5a1.086,1.086,0,0,0,.324.109,34.174,34.174,0,0,0,5.168-.13,6.349,6.349,0,0,0,2.833-1.064,4.813,4.813,0,0,0,2.184-4.668,4.509,4.509,0,0,0-3.027-4.017,5.461,5.461,0,0,0-.778-.261,12.456,12.456,0,0,0-4.908-.347,5.132,5.132,0,0,0-1.816.282,97.87,97.87,0,0,0,0,10.075Z" fill="#231f20" fill-rule="evenodd"/>
        <path id="Path_538" data-name="Path 538" d="M444.544,126.568c-1.427.022-2.66.022-3.978,0-.216-.521-.432-.977-.584-1.455-.476-1.715-.93-3.431-1.405-5.146a17.736,17.736,0,0,0-.757-2.367,4.644,4.644,0,0,0-4.238-3.083c-1.362-.087-2.746-.087-4.13-.109a2.679,2.679,0,0,0-.346.087c-.3.347-.173.76-.173,1.151v9.489c0,.434,0,.869-.022,1.281a4.538,4.538,0,0,1-1.924.174h-1.816c-.043-.3-.086-.521-.108-.738v-26.9a6.451,6.451,0,0,1,2.249-.434,46.236,46.236,0,0,1,6.011-.261,18.69,18.69,0,0,1,4.779.695,8.681,8.681,0,0,1,2.443,1.151,6.525,6.525,0,0,1,2.941,5.276,7.039,7.039,0,0,1-3.806,6.948c-.476.282-.995.478-1.557.76a2.747,2.747,0,0,0,.432.347,6.261,6.261,0,0,1,2.941,3.127,12.47,12.47,0,0,1,.649,1.781c.757,2.692,1.319,5.45,2.4,8.273Zm-15.5-15.113c.151.065.216.13.3.13a33.215,33.215,0,0,0,5.3-.109,6.868,6.868,0,0,0,2.638-.934,4.684,4.684,0,0,0,2.162-2.844,6.111,6.111,0,0,0,.108-2.345,4.2,4.2,0,0,0-1.665-2.888,5.66,5.66,0,0,0-1.881-.934,10.966,10.966,0,0,0-3.243-.478c-1.016.022-2.033.13-3.049.217a1.786,1.786,0,0,0-.605.174c-.151,1-.173,8.881-.022,10.032Z" fill="#231f20" fill-rule="evenodd"/>
        <path id="Path_539" data-name="Path 539" d="M584.7,123.963a26.119,26.119,0,0,1,.043,2.888,3.22,3.22,0,0,1-.692.174H569.283c-.432,0-.843,0-1.341-.043a6.092,6.092,0,0,1-.108-.738V100.4a4.652,4.652,0,0,1,.086-1.433,2.223,2.223,0,0,1,.476-.087h15.438a5.91,5.91,0,0,1,.086,3.018,27.762,27.762,0,0,1-3.005.043h-8.973a1.893,1.893,0,0,0-.13.5v7.817a1.48,1.48,0,0,0,.086.369,2.284,2.284,0,0,0,1.146.109h9.081c.389,0,.757.043,1.189.065a14.757,14.757,0,0,1,.043,2.931c-1.968.087-3.849.043-5.708.043h-5.708a4.811,4.811,0,0,0-.13.695v8.664c0,.2.043.391.043.565a1.89,1.89,0,0,0,1.276.174h10.163c.432,0,.865,0,1.427.022Z" fill="#231f20" fill-rule="evenodd"/>
        <path id="Path_540" data-name="Path 540" d="M449.063,126.525c-.173-1.325-.238-19.759-.108-27.142,0-.261.043-.543.065-.76.087-.065.108-.109.151-.13.022,0,.065-.043.108-.043.281,0,.541-.022.822-.022,4.887,0,9.752,0,14.638.022a.782.782,0,0,1,.281.109,3.876,3.876,0,0,1,.108,1.346v1.368a1.358,1.358,0,0,1-1.081.239h-9.795a4.36,4.36,0,0,0-1.3.087,2.273,2.273,0,0,0-.108.456v7.969c.368.391.735.261,1.081.261h10.335a5.772,5.772,0,0,1,.043,3.04h-11.33a5.956,5.956,0,0,0-.13.738v8.533a6.463,6.463,0,0,0,.065.673,2.545,2.545,0,0,0,1.319.152h10.162c.432,0,.843.022,1.276.043a3.427,3.427,0,0,1,.13,1.455v1.346a1.746,1.746,0,0,1-1.319.239h-14.4c-.3,0-.627-.022-.995-.043Z" fill="#231f20" fill-rule="evenodd"/>
        <path id="Path_541" data-name="Path 541" d="M469.3,125.179a1.215,1.215,0,0,1,.043-.434c.259-.825.541-1.65.8-2.454.389-.174.649.109.908.217a14.239,14.239,0,0,0,7.46,1.3,6.958,6.958,0,0,0,2.681-.869,4.487,4.487,0,0,0,.8-7.1,8.12,8.12,0,0,0-2.076-1.346c-.93-.413-1.9-.76-2.833-1.151-1.038-.456-2.1-.869-3.114-1.433a10.89,10.89,0,0,1-1.989-1.455,6.737,6.737,0,0,1-.216-9.663,8.78,8.78,0,0,1,4.043-2.345,14.567,14.567,0,0,1,5.73-.413,16.224,16.224,0,0,1,3.784.869,7.373,7.373,0,0,1,.714.369,6.822,6.822,0,0,1-1.016,2.91c-.3-.109-.649-.217-.973-.347a12.73,12.73,0,0,0-5.081-.869,6.852,6.852,0,0,0-2.941.738,3.934,3.934,0,0,0-2.033,2.367,3.8,3.8,0,0,0,.8,3.756,5.126,5.126,0,0,0,1.687,1.281c.995.478,2.011.912,3.005,1.346.973.413,1.989.782,2.919,1.238a16.312,16.312,0,0,1,2.205,1.368,6.747,6.747,0,0,1,2.768,5.971,7.251,7.251,0,0,1-3.589,6.167,10.57,10.57,0,0,1-4.67,1.563,17.973,17.973,0,0,1-7.589-.673,7.313,7.313,0,0,1-2.205-.977Z" fill="#231f20" fill-rule="evenodd"/>
        <path id="Path_542" data-name="Path 542" d="M489.238,101.381c0-.2-.043-.413-.043-.651V98.666c.411-.347.822-.217,1.211-.217h20.822a3.114,3.114,0,0,1,.151.695v2.171a1.3,1.3,0,0,1-1.081.261h-6.725a2.557,2.557,0,0,0-1.146.109,2.629,2.629,0,0,0-.151,1.411v22.278c0,.347-.043.695-.065,1.021a10.045,10.045,0,0,1-3.784.043,3.717,3.717,0,0,1-.086-1.39V103.118a4.811,4.811,0,0,0-.065-1.368,1.775,1.775,0,0,0-1.189-.174H490.47a1.891,1.891,0,0,1-1.211-.2Z" fill="#231f20" fill-rule="evenodd"/>
        <path id="Path_543" data-name="Path 543" d="M270.549,112.389a5.3,5.3,0,1,1-5.3-5.32,5.317,5.317,0,0,1,5.3,5.32" fill="#231f20" fill-rule="evenodd"/>
        <path id="Path_544" data-name="Path 544" d="M52.834,118.556a17.7,17.7,0,0,0,4.627.521,10.927,10.927,0,0,0,7.027-2.844,15.579,15.579,0,0,0,1.643-1.737c2.033-2.432,2.357-5.32,2.119-8.295-.476-5.863-2.984-10.965-6.141-15.786-2.162-3.322-4.476-6.536-6.53-9.945a34.14,34.14,0,0,1-3.849-8.49,21.919,21.919,0,0,1,.951-14.288,33.784,33.784,0,0,1,2.141-4.625c.065.869.151,1.585.195,2.3A30.883,30.883,0,0,0,60.143,71.2c4.389,6.514,8.671,13.115,13.125,19.586a22.091,22.091,0,0,1,3.7,10.379,25.291,25.291,0,0,1-2.487,13.549,25.092,25.092,0,0,1-4.346,6.8c-2.119,2.258-4.562,3.865-7.827,3.756a8.291,8.291,0,0,1-2.724-.608c-3.006-1.173-5.038-3.452-6.768-6.1Z" fill="#29abe2" fill-rule="evenodd"/>
        <path id="Path_545" data-name="Path 545" d="M67.3,42.037c.13,1.52.195,2.866.346,4.191a28.827,28.827,0,0,0,4.368,12.833q6.616,10.1,13.471,20.02a18.989,18.989,0,0,1,3.308,10.748,28.394,28.394,0,0,1-3.654,13.745,21.571,21.571,0,0,1-4.433,5.906,10.856,10.856,0,0,1-3.006,2.063,37.278,37.278,0,0,0,.973-4.6,24.809,24.809,0,0,0-.368-8.751,4.624,4.624,0,0,1,.151-2.54,24.461,24.461,0,0,0-.908-18.609,45.867,45.867,0,0,0-4.216-6.514c-2.551-3.735-5.124-7.426-7.7-11.139-.541-.782-1.059-1.629-1.643-2.367a3.085,3.085,0,0,1-.584-2.193,27.558,27.558,0,0,1,2.357-9.641c.454-1.021.93-2.019,1.535-3.148" fill="#29abe2" fill-rule="evenodd"/>
        <path id="Path_546" data-name="Path 546" d="M61.634,52.829A14.272,14.272,0,0,1,60.64,51.2c-1.773-2.8-2.335-5.95-2.7-9.163a33.366,33.366,0,0,1,.346-9.945c.043-.2.13-.478-.065-.565-.281-.13-.368.217-.476.391-1.189,1.889-2.465,3.691-3.568,5.646-.216.391-.368.5-.627.043a35.429,35.429,0,0,1-4.411-11.052A24.868,24.868,0,0,1,50.931,11.7a35.905,35.905,0,0,1,2.4-4.56c.086.912.173,1.585.195,2.28a27,27,0,0,0,5.341,15.265c2.962,3.952,5.86,7.969,8.822,11.942a.9.9,0,0,1,.043,1.216,41.747,41.747,0,0,0-4.995,10.379,24.757,24.757,0,0,0-.822,3.756,1.5,1.5,0,0,1-.259.869Z" fill="#bf222f" fill-rule="evenodd"/>
        <path id="Path_547" data-name="Path 547" d="M90.133,95.735a29.211,29.211,0,0,0,.411-7.252,18.068,18.068,0,0,0-2.833-9.228c-2.746-4.256-5.665-8.4-8.5-12.594-.627-.934-1.232-1.867-1.86-2.8a1.186,1.186,0,0,1-.086-1.107,28.419,28.419,0,0,0,1.081-8.077,21.658,21.658,0,0,0-1.341-7.4c-.043-.109-.173-.239-.043-.391.562.912,1.081,1.867,1.687,2.758,4.389,6.579,8.757,13.158,13.254,19.651a18.681,18.681,0,0,1,3.2,10.227c.173,5.667-1.687,10.727-4.5,15.5-.151.261-.3.5-.454.738Z" fill="#f59422" fill-rule="evenodd"/>
        <path id="Path_548" data-name="Path 548" d="M57.18,47.878A22.941,22.941,0,0,0,60.1,54.393c2.119,3.235,4.324,6.427,6.53,9.619,2.724,3.974,5.535,7.86,8.195,11.877a19.908,19.908,0,0,1,3.135,9.163,23.36,23.36,0,0,1-.605,8.121c-.065.239-.043.5-.281.695-.3-.2-.324-.543-.454-.825a36.9,36.9,0,0,0-3.287-5.385C69.094,81.426,64.9,75.151,60.813,68.832a26.207,26.207,0,0,1-3.7-10.77,32.05,32.05,0,0,1-.389-5.754,21.615,21.615,0,0,1,.476-4.386Z" fill="#1876b9" fill-rule="evenodd"/>
        <path id="Path_549" data-name="Path 549" d="M64.835,1.194A50.356,50.356,0,0,0,65.7,8.642a26.446,26.446,0,0,0,4.151,9.815c1.643,2.367,3.265,4.755,4.908,7.122a.8.8,0,0,1,.022,1.042,52.217,52.217,0,0,0-4.433,7.969c-.173.391-.346.456-.605.087-.454-.608-.908-1.216-1.341-1.824A54.507,54.507,0,0,1,62.3,22.43a20.959,20.959,0,0,1,0-16.09,25.506,25.506,0,0,1,2.551-5.168Z" fill="#bf222f" fill-rule="evenodd"/>
        <path id="Path_550" data-name="Path 550" d="M75.884,27.207c1.449,2.019,2.854,3.952,4.195,5.906,1.73,2.5,3.676,4.864,5.211,7.513A21.958,21.958,0,0,1,88.035,54.87,23.055,23.055,0,0,1,87.3,58.3c-.043.174-.043.413-.281.434-.173,0-.238-.2-.324-.326-2.681-3.974-5.449-7.882-7.871-12.008a25.134,25.134,0,0,1-2.919-8.968,33.925,33.925,0,0,1-.13-9.923c0-.065.043-.109.108-.282Z" fill="#bf222f" fill-rule="evenodd"/>
        <path id="Path_551" data-name="Path 551" d="M69.5,39.084c.973,1.281,1.924,2.606,2.941,3.865a18.213,18.213,0,0,1,3.914,9.163,25.063,25.063,0,0,1-.5,8.794c0,.087-.065.174-.151.347C73.375,58,71.321,54.7,70.37,50.81a33.373,33.373,0,0,1-.843-11.725Z" fill="#bf222f" fill-rule="evenodd"/>
        <path id="Path_552" data-name="Path 552" d="M66.543,106.744c0,1.173-.043,1.216-1.016,1.433a9.3,9.3,0,0,1-8.022-2.171,16.673,16.673,0,0,1-3.351-3.518c-.108-.152-.3-.3-.195-.478.13-.239.368-.065.562,0a11.4,11.4,0,0,0,10.119-1.65c.324-.239.519-.217.649.2a27.136,27.136,0,0,1,1.276,6.21Z" fill="#1876b9" fill-rule="evenodd"/>
        <path id="Path_553" data-name="Path 553" d="M52.185,54.023c-.778-5.646.908-10.64,3.633-15.59.108,1.368.216,2.54.324,3.735a25.541,25.541,0,0,0,.584,3.6,1.123,1.123,0,0,1-.086.912A54.924,54.924,0,0,0,52.4,53.915c0,.043-.065.043-.195.13Z" fill="#1876b9" fill-rule="evenodd"/>
        <path id="Path_554" data-name="Path 554" d="M76.208,45.295c-1.341-2.475-3.265-4.516-4.887-6.775a.855.855,0,0,1-.238-.869A36.811,36.811,0,0,1,73.4,32.375c.022-.043.086-.087.259-.217a35.687,35.687,0,0,0,2.551,13.137" fill="#f59422" fill-rule="evenodd"/>
        <path id="Path_555" data-name="Path 555" d="M42.282,119.142a17.7,17.7,0,0,1-4.627.521,10.927,10.927,0,0,1-7.027-2.844,15.581,15.581,0,0,1-1.643-1.737c-2.032-2.432-2.357-5.32-2.119-8.295.476-5.863,2.984-10.965,6.141-15.786,2.162-3.322,4.476-6.536,6.53-9.945a34.14,34.14,0,0,0,3.849-8.49,21.919,21.919,0,0,0-.951-14.288,31.388,31.388,0,0,0-2.141-4.625c-.065.869-.151,1.585-.195,2.3a30.883,30.883,0,0,1-5.124,15.829C30.585,78.3,26.3,84.9,21.849,91.371a22.091,22.091,0,0,0-3.7,10.379A25.291,25.291,0,0,0,20.639,115.3a25.092,25.092,0,0,0,4.346,6.8c2.119,2.258,4.562,3.865,7.827,3.756a8.29,8.29,0,0,0,2.724-.608c3.006-1.173,5.038-3.452,6.768-6.1Z" fill="#d1d2d4" fill-rule="evenodd"/>
        <path id="Path_556" data-name="Path 556" d="M27.817,42.624c-.13,1.52-.195,2.866-.346,4.191A28.827,28.827,0,0,1,23.1,59.647q-6.616,10.1-13.471,20.02A18.989,18.989,0,0,0,6.325,90.415,28.394,28.394,0,0,0,9.979,104.16a21.571,21.571,0,0,0,4.433,5.906,10.856,10.856,0,0,0,3.006,2.063,37.279,37.279,0,0,1-.973-4.6,24.809,24.809,0,0,1,.368-8.751,4.624,4.624,0,0,0-.151-2.54,24.461,24.461,0,0,1,.908-18.609,45.867,45.867,0,0,1,4.216-6.514c2.551-3.735,5.124-7.426,7.7-11.139.541-.782,1.059-1.607,1.643-2.367a3.085,3.085,0,0,0,.584-2.193,27.558,27.558,0,0,0-2.357-9.641c-.454-1.021-.93-2.019-1.535-3.148" fill="#d1d2d4" fill-rule="evenodd"/>
        <path id="Path_557" data-name="Path 557" d="M33.482,53.415a14.272,14.272,0,0,0,.995-1.629c1.773-2.8,2.335-5.95,2.7-9.163a33.366,33.366,0,0,0-.346-9.945c-.043-.2-.13-.478.065-.565.281-.13.368.217.476.391,1.189,1.889,2.465,3.691,3.568,5.646.216.391.368.5.627.043A35.429,35.429,0,0,0,45.98,27.142,24.868,24.868,0,0,0,44.185,12.29a35.906,35.906,0,0,0-2.4-4.56c-.086.912-.173,1.585-.195,2.28A27,27,0,0,1,36.25,25.275c-2.962,3.952-5.86,7.969-8.822,11.942a.9.9,0,0,0-.043,1.216,41.747,41.747,0,0,1,4.995,10.379,24.757,24.757,0,0,1,.822,3.756,1.5,1.5,0,0,0,.259.869Z" fill="#bf222f" fill-rule="evenodd"/>
        <path id="Path_558" data-name="Path 558" d="M4.984,96.3a29.211,29.211,0,0,1-.411-7.252,18.068,18.068,0,0,1,2.833-9.228c2.746-4.256,5.665-8.4,8.5-12.594.627-.934,1.232-1.867,1.86-2.8a1.186,1.186,0,0,0,.086-1.107,28.418,28.418,0,0,1-1.081-8.077,21.658,21.658,0,0,1,1.341-7.4c.043-.109.173-.239.043-.391-.562.912-1.081,1.867-1.687,2.758C12.076,56.781,7.708,63.36,3.211,69.853A18.681,18.681,0,0,0,.011,80.08c-.173,5.667,1.687,10.727,4.5,15.5.151.261.3.5.454.738Z" fill="#f59422" fill-rule="evenodd"/>
        <path id="Path_559" data-name="Path 559" d="M37.936,48.465a22.941,22.941,0,0,1-2.919,6.514c-2.119,3.235-4.324,6.427-6.53,9.619-2.724,3.974-5.535,7.86-8.195,11.877a19.908,19.908,0,0,0-3.135,9.163,22.814,22.814,0,0,0,.605,8.121c.065.239.043.5.281.695.3-.2.324-.543.454-.825a36.9,36.9,0,0,1,3.287-5.385c4.238-6.232,8.433-12.507,12.519-18.826A26.207,26.207,0,0,0,38,58.648a32.05,32.05,0,0,0,.389-5.754,21.615,21.615,0,0,0-.476-4.386Z" fill="#a8a9ac" fill-rule="evenodd"/>
        <path id="Path_560" data-name="Path 560" d="M30.3,1.759a47.646,47.646,0,0,1-.887,7.448,26.446,26.446,0,0,1-4.151,9.815c-1.643,2.367-3.265,4.755-4.908,7.122a.8.8,0,0,0-.022,1.042,52.217,52.217,0,0,1,4.433,7.969c.173.391.346.456.605.087.454-.608.908-1.216,1.341-1.824a54.507,54.507,0,0,0,6.1-10.423,20.959,20.959,0,0,0,0-16.09A25.506,25.506,0,0,0,30.26,1.737Z" fill="#bf222f" fill-rule="evenodd"/>
        <path id="Path_561" data-name="Path 561" d="M19.233,27.772c-1.449,2.019-2.854,3.952-4.195,5.906-1.73,2.5-3.676,4.864-5.211,7.513A21.958,21.958,0,0,0,7.081,55.435a23.056,23.056,0,0,0,.735,3.431c.043.174.065.413.281.434.173,0,.238-.2.324-.326C11.1,55,13.871,51.092,16.292,46.966A25.134,25.134,0,0,0,19.211,38a33.924,33.924,0,0,0,.13-9.923c0-.065-.043-.109-.108-.282Z" fill="#bf222f" fill-rule="evenodd"/>
        <path id="Path_562" data-name="Path 562" d="M25.612,39.671c-.973,1.281-1.924,2.606-2.941,3.865A18.213,18.213,0,0,0,18.757,52.7a25.063,25.063,0,0,0,.5,8.794c0,.087.065.174.151.347,2.335-3.257,4.389-6.558,5.341-10.444a33.373,33.373,0,0,0,.843-11.725Z" fill="#bf222f" fill-rule="evenodd"/>
        <path id="Path_563" data-name="Path 563" d="M28.574,107.33c0,1.173.043,1.216,1.016,1.433a9.3,9.3,0,0,0,8.022-2.171,16.673,16.673,0,0,0,3.351-3.518c.108-.152.3-.3.195-.478-.13-.239-.368-.065-.562,0a12.627,12.627,0,0,1-8.238-.543,12.583,12.583,0,0,1-1.881-1.107c-.324-.239-.519-.217-.649.2a27.136,27.136,0,0,0-1.276,6.21Z" fill="#a8a9ac" fill-rule="evenodd"/>
        <path id="Path_564" data-name="Path 564" d="M42.953,54.61c.778-5.646-.908-10.64-3.633-15.59-.108,1.368-.216,2.54-.324,3.735a25.541,25.541,0,0,1-.584,3.6,1.123,1.123,0,0,0,.086.912A54.924,54.924,0,0,1,42.737,54.5c0,.043.065.043.195.13Z" fill="#a8a9ac" fill-rule="evenodd"/>
        <path id="Path_565" data-name="Path 565" d="M18.909,45.859c1.341-2.475,3.265-4.516,4.887-6.775a.855.855,0,0,0,.238-.869,36.812,36.812,0,0,0-2.314-5.276c-.022-.043-.086-.087-.259-.217a35.687,35.687,0,0,1-2.551,13.137" fill="#f59422" fill-rule="evenodd"/>
        <path id="Path_566" data-name="Path 566" d="M592.635.022h-2.789c-.411,0-.562.152-.692.521-.281.869-.605,1.715-.908,2.562s-.605,1.672-.973,2.649c-.173-.413-.3-.673-.389-.912-.562-1.433-1.1-2.866-1.687-4.278-.086-.2-.3-.5-.454-.5-1.016-.043-2.033-.022-3.049-.022V9.619h2.27V2.562c.151.326.216.434.259.543.757,2.019,1.535,4.039,2.27,6.058a.759.759,0,0,0,1.427,0c.238-.717.5-1.39.757-2.085.519-1.411,1.038-2.8,1.557-4.212a.367.367,0,0,1,.151.022V9.055c0,.2.195.565.346.586a17.983,17.983,0,0,0,1.881.022V.043Z" fill="#fff"/>
        <path id="Path_567" data-name="Path 567" d="M571.446,1.933h2.962V9.619h2.378V1.889h2.9V.087h-8.216V1.933Z" fill="#fff"/>
        <path id="Path_568" data-name="Path 568" d="M592.635.022V9.641a17.98,17.98,0,0,1-1.881-.022c-.13,0-.346-.369-.346-.586-.022-1.824,0-3.626,0-5.45V2.866a.486.486,0,0,1-.151-.022c-.519,1.411-1.038,2.8-1.557,4.212-.26.695-.519,1.39-.757,2.085a.759.759,0,0,1-1.427,0c-.735-2.019-1.514-4.039-2.27-6.058a4.985,4.985,0,0,0-.259-.543V9.6h-2.27V.022c1.038,0,2.033-.022,3.049.022.151,0,.368.3.454.5.584,1.411,1.124,2.844,1.687,4.278.108.261.216.5.389.912.368-.977.67-1.824.973-2.649.3-.847.627-1.694.908-2.562A.614.614,0,0,1,589.868,0c.908.022,1.838,0,2.789,0Z" fill-rule="evenodd"/>
        <path id="Path_569" data-name="Path 569" d="M571.446,1.933V.087h8.216v1.8h-2.9v7.73h-2.378V1.933h-2.941Z" fill-rule="evenodd"/>
      </g>
    </g>
  </g>
</svg>
