<svg xmlns="http://www.w3.org/2000/svg" xmlns:xlink="http://www.w3.org/1999/xlink" width="223.369" height="121.258" viewBox="0 0 223.369 121.258">
  <defs>
    <clipPath id="clip-path">
      <rect id="crop" width="223.369" height="121.258" fill="none"/>
    </clipPath>
    <clipPath id="clip-path-2">
      <path id="Path_577" data-name="Path 577" d="M161.029,50.611a47.99,47.99,0,0,0-12.377-32.106c39.694,11.081,60.783,37.179,61.584,42.015-.913,7.983-36.659,47.263-98.552,47.263-58.181,0-94.288-38.6-98.341-47.243,2.891-6.588,24.387-30.718,60.993-41.618a47.937,47.937,0,0,0-12,31.688c0,26.811,22.133,48.631,49.345,48.631s49.345-21.819,49.345-48.631m-85.557,0c0-19.388,16.247-35.164,36.212-35.164S147.89,31.223,147.89,50.611s-16.24,35.151-36.205,35.151S75.472,70,75.472,50.611M111.684,0C45.1,0,0,45.512,0,60.628c0,12.132,43.255,60.628,111.684,60.628,67.175,0,111.684-43.14,111.684-60.628C223.369,45.04,179.49,0,111.684,0Z" fill="none"/>
    </clipPath>
    <linearGradient id="linear-gradient" x1="0.054" y1="0.815" x2="0.08" y2="0.815" gradientUnits="objectBoundingBox">
      <stop offset="0" stop-color="#e30613"/>
      <stop offset="1" stop-color="#e30613"/>
    </linearGradient>
  </defs>
  <g id="Vector_Smart_Object" data-name="Vector Smart Object" clip-path="url(#clip-path)">
    <g id="Group_1220" data-name="Group 1220">
      <g id="Group_1219" data-name="Group 1219" clip-path="url(#clip-path-2)">
        <rect id="Rectangle_459" data-name="Rectangle 459" width="250.343" height="192.28" transform="translate(-38.006 14.186) rotate(-20)" fill="url(#linear-gradient)"/>
      </g>
    </g>
  </g>
</svg>
